<svg width="32" height="32" viewBox="0 0 32 32" fill="none" xmlns="http://www.w3.org/2000/svg">
  <defs>
    <linearGradient id="grad" x1="0%" y1="0%" x2="100%" y2="100%">
      <stop offset="0%" style="stop-color:#8B5CF6;stop-opacity:1" />
      <stop offset="100%" style="stop-color:#EC4899;stop-opacity:1" />
    </linearGradient>
  </defs>
  
  <!-- Background -->
  <rect width="32" height="32" rx="8" fill="url(#grad)"/>
  
  <!-- Letter N -->
  <path d="M6 8h2l3 9h-2l-0.5-1.5h-2L6 17H4L6 8z" fill="white"/>
  <path d="M7 12.5l-0.5-1.5-0.5 1.5h1z" fill="white"/>
  
  <!-- Letter B -->
  <path d="M16 8h5c1.5 0 2.5 1 2.5 2.5S22.5 13 21 13H19l2.5 7H18L16 8z" fill="white"/>
  <path d="M19 11h2c0.5 0 1-0.5 1-1s-0.5-1-1-1h-2v2z" fill="white"/>
</svg>
